<svg xmlns="http://www.w3.org/2000/svg" viewBox="0 0 1440 960" preserveAspectRatio="xMidYMid slice">
  <defs>
    <linearGradient id="grad" x1="0%" y1="0%" x2="100%" y2="100%">
      <stop offset="0%" stop-color="#050505" />
      <stop offset="50%" stop-color="#1c1c1c" />
      <stop offset="100%" stop-color="#101010" />
    </linearGradient>
    <radialGradient id="glow" cx="70%" cy="40%" r="60%">
      <stop offset="0%" stop-color="#facc15" stop-opacity="0.25" />
      <stop offset="100%" stop-color="#facc15" stop-opacity="0" />
    </radialGradient>
  </defs>
  <rect width="1440" height="960" fill="url(#grad)" />
  <circle cx="960" cy="360" r="520" fill="url(#glow)" />
  <g opacity="0.5" stroke="#facc15" stroke-width="2" fill="none">
    <path d="M420 160c120 120 160 240 160 360s-40 240-160 360" stroke-opacity="0.12" />
    <path d="M720 120c160 160 220 300 220 440s-60 280-220 440" stroke-opacity="0.08" />
    <path d="M1040 60c220 220 300 420 300 620s-80 400-300 620" stroke-opacity="0.05" />
  </g>
  <g fill="#facc15" fill-opacity="0.6">
    <circle cx="380" cy="320" r="6" />
    <circle cx="520" cy="500" r="4" />
    <circle cx="780" cy="280" r="5" />
    <circle cx="1080" cy="520" r="4" />
    <circle cx="940" cy="700" r="6" />
  </g>
</svg>
